<svg width="33" height="33" viewBox="0 0 33 33" fill="none" xmlns="http://www.w3.org/2000/svg">
<path d="M12.2925 25.7194C14.0344 25.7303 15.7612 25.3953 17.3726 24.7338C18.9841 24.0722 20.4481 23.0973 21.6799 21.8655C22.9117 20.6338 23.8866 19.1697 24.5481 17.5583C25.2097 15.9468 25.5447 14.2201 25.5338 12.4781V11.8697C26.4367 11.2081 27.2183 10.3952 27.8438 9.46687C26.9935 9.83874 26.0938 10.0854 25.1728 10.1991C26.1493 9.61721 26.882 8.70134 27.2353 7.62094C26.3253 8.16692 25.3273 8.55075 24.2859 8.75531C23.5846 8.00803 22.6566 7.51271 21.6454 7.34599C20.6342 7.17927 19.5963 7.35044 18.6922 7.83302C17.7881 8.3156 17.0682 9.08268 16.644 10.0156C16.2197 10.9485 16.1148 11.9952 16.3453 12.9937C14.4953 12.9029 12.6851 12.4235 11.0327 11.5866C9.38025 10.7497 7.92262 9.57421 6.75469 8.13656C6.16576 9.15871 5.98726 10.3665 6.25531 11.5153C6.52337 12.6641 7.21796 13.6681 8.19844 14.3241C7.47513 14.2962 6.76856 14.0983 6.13594 13.7466V13.7981C6.12951 14.8663 6.48937 15.9045 7.15554 16.7395C7.82171 17.5746 8.75394 18.1561 9.79688 18.3872C9.12413 18.5681 8.41943 18.5963 7.73438 18.4697C8.03631 19.3807 8.61267 20.176 9.38442 20.7465C10.1562 21.317 11.0855 21.6348 12.045 21.6562C10.4045 22.9768 8.36559 23.7037 6.25969 23.7188C5.89045 23.7081 5.52208 23.6771 5.15625 23.6259C7.2878 24.984 9.76512 25.7 12.2925 25.6884" fill="#699BF7"/>
</svg>
