<svg width="33" height="33" viewBox="0 0 33 33" fill="none" xmlns="http://www.w3.org/2000/svg">
<path d="M29.9826 13.8071H28.875V13.75H16.5V19.25H24.2708C23.1371 22.4517 20.0908 24.75 16.5 24.75C11.9439 24.75 8.25 21.0561 8.25 16.5C8.25 11.9439 11.9439 8.25 16.5 8.25C18.6031 8.25 20.5164 9.04337 21.9732 10.3393L25.8624 6.45012C23.4066 4.16144 20.1218 2.75 16.5 2.75C8.90656 2.75 2.75 8.90656 2.75 16.5C2.75 24.0934 8.90656 30.25 16.5 30.25C24.0934 30.25 30.25 24.0934 30.25 16.5C30.25 15.5781 30.1551 14.6781 29.9826 13.8071Z" fill="#FBC02D"/>
<path d="M4.33537 10.1001L8.85294 13.4131C10.0753 10.3868 13.0357 8.25 16.5 8.25C18.6031 8.25 20.5164 9.04337 21.9732 10.3393L25.8624 6.45012C23.4066 4.16144 20.1217 2.75 16.5 2.75C11.2186 2.75 6.6385 5.73169 4.33537 10.1001Z" fill="#E53935"/>
<path d="M16.5 30.25C20.0516 30.25 23.2788 28.8908 25.7187 26.6805L21.4631 23.0794C20.0826 24.1251 18.3666 24.75 16.5 24.75C12.9236 24.75 9.88694 22.4696 8.74294 19.2871L4.25906 22.7418C6.53469 27.1947 11.1561 30.25 16.5 30.25Z" fill="#4CAF50"/>
<path d="M29.9826 13.8071L29.9716 13.75H28.875H16.5V19.25H24.2708C23.7263 20.7879 22.737 22.1141 21.461 23.0801C21.4617 23.0794 21.4624 23.0794 21.4631 23.0787L25.7187 26.6798C25.4176 26.9534 30.25 23.375 30.25 16.5C30.25 15.5781 30.1551 14.6781 29.9826 13.8071Z" fill="#1565C0"/>
</svg>
